# xmcd
#
# Track frame offsets:
#	150
#	11861
#	26606
#	48212
#	69956
#	85968
#	96305
#	111623
#	118995
#	129846
#	146389
#	159734
#	170754
#	181012
#	190400
#
# Disc length: 2758
#
# Revision: 1
# Processed by: cddbd v1.5.1PL0 Copyright (c) Steve Scherf et al.
# Submitted via: ExactAudioCopy v0.95a3
# Normalized: r0:TDELIM( - )
#
DISCID=d10ac40f
DTITLE=Various Artist - Country Stars On The Road
DYEAR=2002
DGENRE=Country
TTITLE0=Dave Dudley - Six Days On The Road
TTITLE1=Johnny Cash - Cats In The Cradle
TTITLE2=Johnny Hill - Ruf Teddybär Eins-Vier
TTITLE3=Tom Astor - Kameraden Der Strasse
TTITLE4=Gunter Gabriel - Ohne Moos Nichts Los
TTITLE5=Connie Francis - Oh Lonesome Me
TTITLE6=Billy Ray Cyrus - Achy Breaky Heart
TTITLE7=Volker Lechtenbrink - Hitch-Hike-Baby
TTITLE8=Nils Tuxen - Hello Mary Loo
TTITLE9=Linda Bergen - In Virginia Fällt Der Regen
TTITLE10=Freddy Quinn - Green Green Grass Of Home (dt. Version)
TTITLE11=Roger Miller - King Of The Road
TTITLE12=Ronnie Rogers - Rosie's Leaving
TTITLE13=Daliah Lavi - Schalt Dein Radio Ein
TTITLE14=The Tennessee Stars - Tom Dooley
EXTD=
EXTT0=
EXTT1=
EXTT2=
EXTT3=
EXTT4=
EXTT5=
EXTT6=
EXTT7=
EXTT8=
EXTT9=
EXTT10=
EXTT11=
EXTT12=
EXTT13=
EXTT14=
PLAYORDER=
